<?xml version="1.0" encoding="UTF-8" standalone="no"?>
<!DOCTYPE svg PUBLIC "-//W3C//DTD SVG 1.1//EN"
 "http://www.w3.org/Graphics/SVG/1.1/DTD/svg11.dtd">
<!-- Generated by graphviz version 2.43.0 (0)
 -->
<!-- Title: G Pages: 1 -->
<svg width="537pt" height="197pt"
 viewBox="0.00 0.00 537.17 197.05" xmlns="http://www.w3.org/2000/svg" xmlns:xlink="http://www.w3.org/1999/xlink">
<g id="graph0" class="graph" transform="scale(1 1) rotate(0) translate(21.6 175.45)">
<title>G</title>
<polygon fill="#fbfbfc" stroke="transparent" points="-21.6,21.6 -21.6,-175.45 515.57,-175.45 515.57,21.6 -21.6,21.6"/>
<text text-anchor="middle" x="246.99" y="-133.85" font-family="Helvetica,sans-Serif" font-size="20.00">experiment · package overview</text>
<!-- experiment_agent_filter -->
<g id="node1" class="node">
<title>experiment_agent_filter</title>
<polygon fill="blue" stroke="black" points="72,-54.85 0,-54.85 0,-18.85 72,-18.85 72,-54.85"/>
<text text-anchor="middle" x="36" y="-34.35" font-family="Helvetica,sans-Serif" font-size="10.00" fill="white">agent_filter</text>
</g>
<!-- experiment_common -->
<g id="node2" class="node">
<title>experiment_common</title>
<polygon fill="blue" stroke="black" points="189,-121.85 130,-121.85 130,-85.85 189,-85.85 189,-121.85"/>
<text text-anchor="middle" x="159.5" y="-101.35" font-family="Helvetica,sans-Serif" font-size="10.00" fill="white">common</text>
</g>
<!-- experiment_agent_filter&#45;&gt;experiment_common -->
<g id="edge3" class="edge">
<title>experiment_agent_filter&#45;&gt;experiment_common</title>
<path fill="none" stroke="#6b7280" stroke-width="1.1" d="M76.62,-58.7C91.5,-66.91 108.31,-76.18 122.82,-84.18"/>
<polygon fill="blue" stroke="#6b7280" stroke-width="1.1" points="77.71,-56.31 69.88,-54.99 75.18,-60.91 77.71,-56.31"/>
<polygon fill="blue" stroke="#6b7280" stroke-width="1.1" points="121.9,-86.67 129.73,-87.99 124.43,-82.07 121.9,-86.67"/>
</g>
<!-- experiment_experiment_config -->
<g id="node3" class="node">
<title>experiment_experiment_config</title>
<ellipse fill="#ce3b3b" stroke="black" cx="430.99" cy="-37.85" rx="62.97" ry="18"/>
<text text-anchor="middle" x="430.99" y="-35.35" font-family="Helvetica,sans-Serif" font-size="10.00" fill="#ffffff">experiment_config</text>
</g>
<!-- experiment_agent_filter&#45;&gt;experiment_experiment_config -->
<g id="edge6" class="edge">
<title>experiment_agent_filter&#45;&gt;experiment_experiment_config</title>
<path fill="none" stroke="#6b7280" stroke-width="1.1" d="M72.39,-26.73C124.5,-13.15 224.88,7.97 310,-3.85 334.85,-7.31 361.8,-14.6 383.84,-21.55"/>
<polygon fill="blue" stroke="#6b7280" stroke-width="1.1" points="383.18,-24.1 391.12,-23.89 384.78,-19.1 383.18,-24.1"/>
</g>
<!-- experiment_longmem -->
<g id="node5" class="node">
<title>experiment_longmem</title>
<polygon fill="blue" stroke="black" points="310,-55.85 247,-55.85 247,-19.85 310,-19.85 310,-55.85"/>
<text text-anchor="middle" x="278.5" y="-35.35" font-family="Helvetica,sans-Serif" font-size="10.00" fill="white">longmem</text>
</g>
<!-- experiment_agent_filter&#45;&gt;experiment_longmem -->
<g id="edge10" class="edge">
<title>experiment_agent_filter&#45;&gt;experiment_longmem</title>
<path fill="none" stroke="#6b7280" stroke-width="1.1" d="M79.97,-37.03C125.23,-37.22 195.84,-37.51 239.25,-37.7"/>
<polygon fill="blue" stroke="#6b7280" stroke-width="1.1" points="79.74,-34.41 72.23,-37 79.72,-39.66 79.74,-34.41"/>
<polygon fill="blue" stroke="#6b7280" stroke-width="1.1" points="239.25,-40.32 246.76,-37.73 239.27,-35.07 239.25,-40.32"/>
</g>
<!-- experiment_locomo -->
<g id="node4" class="node">
<title>experiment_locomo</title>
<polygon fill="blue" stroke="black" points="305.5,-123.85 251.5,-123.85 251.5,-87.85 305.5,-87.85 305.5,-123.85"/>
<text text-anchor="middle" x="278.5" y="-103.35" font-family="Helvetica,sans-Serif" font-size="10.00" fill="white">locomo</text>
</g>
<!-- experiment_common&#45;&gt;experiment_locomo -->
<g id="edge9" class="edge">
<title>experiment_common&#45;&gt;experiment_locomo</title>
<path fill="none" stroke="#6b7280" stroke-width="1.1" d="M196.94,-104.48C211.76,-104.73 228.79,-105.02 243.36,-105.27"/>
<polygon fill="blue" stroke="#6b7280" stroke-width="1.1" points="196.67,-101.85 189.12,-104.34 196.58,-107.1 196.67,-101.85"/>
<polygon fill="blue" stroke="#6b7280" stroke-width="1.1" points="243.63,-107.9 251.17,-105.4 243.72,-102.65 243.63,-107.9"/>
</g>
<!-- experiment_common&#45;&gt;experiment_longmem -->
<g id="edge11" class="edge">
<title>experiment_common&#45;&gt;experiment_longmem</title>
<path fill="none" stroke="#6b7280" stroke-width="1.1" d="M195.88,-83.9C209.8,-76.04 225.81,-67.01 239.95,-59.04"/>
<polygon fill="blue" stroke="#6b7280" stroke-width="1.1" points="194.36,-81.74 189.12,-87.71 196.94,-86.31 194.36,-81.74"/>
<polygon fill="blue" stroke="#6b7280" stroke-width="1.1" points="241.47,-61.19 246.72,-55.22 238.89,-56.62 241.47,-61.19"/>
</g>
<!-- experiment_locomo&#45;&gt;experiment_experiment_config -->
<g id="edge7" class="edge">
<title>experiment_locomo&#45;&gt;experiment_experiment_config</title>
<path fill="none" stroke="#6b7280" stroke-width="1.1" d="M305.71,-94.01C328.83,-83.57 362.87,-68.18 389.49,-56.15"/>
<polygon fill="blue" stroke="#6b7280" stroke-width="1.1" points="390.68,-58.5 396.43,-53.02 388.52,-53.71 390.68,-58.5"/>
</g>
<!-- experiment_longmem&#45;&gt;experiment_experiment_config -->
<g id="edge8" class="edge">
<title>experiment_longmem&#45;&gt;experiment_experiment_config</title>
<path fill="none" stroke="#6b7280" stroke-width="1.1" d="M310.32,-37.85C324.71,-37.85 342.48,-37.85 359.88,-37.85"/>
<polygon fill="blue" stroke="#6b7280" stroke-width="1.1" points="360.34,-40.48 367.84,-37.85 360.34,-35.23 360.34,-40.48"/>
</g>
</g>
</svg>
